<svg width="23" height="19" viewBox="0 0 23 19" fill="none" xmlns="http://www.w3.org/2000/svg">
<path d="M22.1332 17.6139C22.0273 17.5075 21.8888 17.4503 21.7421 17.4503H20.8132V7.71836C20.8132 7.37487 20.6747 7.04771 20.4303 6.81055C20.1858 6.57338 19.8518 6.43438 19.5095 6.43438H13.3577V1.84642C13.3577 1.50294 13.2192 1.17583 12.9747 0.938662C12.7303 0.701496 12.3962 0.5625 12.054 0.5625H3.10731C2.76509 0.5625 2.43101 0.701496 2.18656 0.938662C1.94212 1.17583 1.8036 1.50294 1.8036 1.84642V17.4503H0.874724C0.728058 17.4503 0.581374 17.5075 0.475448 17.6139C0.369522 17.7202 0.3125 17.8592 0.3125 18.0064C0.3125 18.1536 0.369522 18.2927 0.475448 18.399C0.581374 18.5053 0.719909 18.5625 0.874724 18.5625H21.7584C21.9051 18.5625 22.0517 18.5053 22.1495 18.399C22.2555 18.2927 22.3125 18.1536 22.3125 18.0064C22.3125 17.8592 22.2392 17.7202 22.1332 17.6139ZM4.94064 4.39799C5.04657 4.29168 5.18508 4.23447 5.33989 4.23447H8.32212C8.46879 4.23447 8.61547 4.29168 8.72139 4.39799C8.82732 4.50431 8.88434 4.64337 8.88434 4.79057C8.88434 4.93778 8.82732 5.07679 8.72139 5.18311C8.61547 5.28942 8.47693 5.34668 8.32212 5.34668H5.33989C5.19323 5.34668 5.04657 5.28942 4.94064 5.18311C4.83472 5.07679 4.77767 4.93778 4.77767 4.79057C4.77767 4.64337 4.83472 4.49613 4.94064 4.39799ZM8.71324 14.7188C8.60731 14.8251 8.4688 14.8823 8.31399 14.8823H5.33176C5.1851 14.8823 5.03841 14.8251 4.93249 14.7188C4.82656 14.6125 4.76954 14.4734 4.76954 14.3262C4.76954 14.179 4.82656 14.04 4.93249 13.9337C5.03841 13.8274 5.17695 13.7701 5.33176 13.7701H8.31399C8.46065 13.7701 8.60731 13.8274 8.71324 13.9337C8.81916 14.04 8.87619 14.179 8.87619 14.3262C8.87619 14.4734 8.81916 14.6207 8.71324 14.7188ZM10.2043 11.0468C10.0984 11.1531 9.95991 11.2104 9.81324 11.2104H6.83102C6.68435 11.2104 6.53768 11.1531 6.4399 11.0468C6.33397 10.9405 6.27695 10.8015 6.27695 10.6543C6.27695 10.5071 6.33397 10.3681 6.4399 10.2617C6.54582 10.1554 6.68435 10.0982 6.83102 10.0982H9.81324C9.95991 10.0982 10.1066 10.1554 10.2043 10.2617C10.3103 10.3681 10.3673 10.5071 10.3673 10.6543C10.3673 10.8097 10.3103 10.9487 10.2043 11.0468ZM17.6599 14.7188C17.554 14.8251 17.4155 14.8823 17.2606 14.8823H15.7695C15.6229 14.8823 15.4762 14.8251 15.3784 14.7188C15.2725 14.6125 15.2155 14.4734 15.2155 14.3262C15.2155 14.179 15.2725 14.04 15.3784 13.9337C15.4843 13.8274 15.6229 13.7701 15.7695 13.7701H17.2606C17.4073 13.7701 17.554 13.8274 17.6599 13.9337C17.7658 14.04 17.8229 14.179 17.8229 14.3262C17.8229 14.4734 17.7658 14.6207 17.6599 14.7188ZM17.6599 11.0468C17.554 11.1531 17.4155 11.2104 17.2606 11.2104H15.7695C15.6229 11.2104 15.4762 11.1531 15.3784 11.0468C15.2725 10.9405 15.2155 10.8015 15.2155 10.6543C15.2155 10.5071 15.2725 10.3681 15.3784 10.2617C15.4843 10.1554 15.6229 10.0982 15.7695 10.0982H17.2606C17.4073 10.0982 17.554 10.1554 17.6599 10.2617C17.7658 10.3681 17.8229 10.5071 17.8229 10.6543C17.8229 10.8097 17.7658 10.9487 17.6599 11.0468Z" fill="#50BEA7" fill-opacity="0.3"/>
<path d="M21.7532 17.4605H20.8204V7.72577C20.82 7.38489 20.6824 7.05809 20.4377 6.81706C20.1931 6.57602 19.8613 6.44044 19.5153 6.44005H13.3628V1.84821C13.3624 1.50734 13.2248 1.18054 12.9801 0.939507C12.7354 0.698473 12.4037 0.562889 12.0577 0.5625H3.10855C2.76254 0.562889 2.43123 0.697628 2.18656 0.938662C1.9419 1.1797 1.80386 1.50734 1.80347 1.84821V17.4605H0.871822C0.723481 17.4605 0.581215 17.5185 0.476322 17.6218C0.371428 17.7252 0.3125 17.8653 0.3125 18.0115C0.3125 18.1576 0.371428 18.2978 0.476322 18.4011C0.581215 18.5044 0.723481 18.5625 0.871822 18.5625H21.7532C21.9015 18.5625 22.0438 18.5044 22.1487 18.4011C22.2536 18.2978 22.3125 18.1576 22.3125 18.0115C22.3125 17.8653 22.2536 17.7252 22.1487 17.6218C22.0438 17.5185 21.9015 17.4605 21.7532 17.4605ZM19.5153 7.54209C19.5648 7.54214 19.6122 7.56151 19.6471 7.59594C19.6821 7.63038 19.7017 7.67707 19.7018 7.72577V17.4605H13.3628V7.54209H19.5153ZM2.92211 1.84821C2.92216 1.79952 2.94182 1.75283 2.97677 1.71839C3.01173 1.68396 3.05912 1.66459 3.10855 1.66454H12.0577C12.1071 1.66459 12.1545 1.68396 12.1895 1.71839C12.2244 1.75283 12.2441 1.79952 12.2441 1.84821V17.4605H2.92211V1.84821Z" fill="#50BEA7"/>
<path d="M4.97632 4.4239C4.87143 4.52724 4.8125 4.66739 4.8125 4.81353C4.8125 4.95967 4.87143 5.09983 4.97632 5.20316C5.08121 5.3065 5.22348 5.36455 5.37182 5.36455H8.35487C8.50321 5.36455 8.64548 5.3065 8.75037 5.20316C8.85527 5.09983 8.9142 4.95967 8.9142 4.81353C8.9142 4.66739 8.85527 4.52724 8.75037 4.4239C8.64548 4.32057 8.50321 4.26251 8.35487 4.26251H5.37182C5.22348 4.26251 5.08121 4.32057 4.97632 4.4239Z" fill="#50BEA7"/>
<path d="M10.2419 11.0807C10.3468 10.9774 10.4057 10.8372 10.4057 10.6911C10.4057 10.5449 10.3468 10.4048 10.2419 10.3015C10.137 10.1981 9.99474 10.1401 9.8464 10.1401H6.86335C6.71501 10.1401 6.57274 10.1981 6.46785 10.3015C6.36295 10.4048 6.30403 10.5449 6.30403 10.6911C6.30403 10.8372 6.36295 10.9774 6.46785 11.0807C6.57274 11.1841 6.71501 11.2421 6.86335 11.2421H9.8464C9.99474 11.2421 10.137 11.1841 10.2419 11.0807Z" fill="#50BEA7"/>
<path d="M8.75037 14.7542C8.85527 14.6508 8.9142 14.5107 8.9142 14.3646C8.9142 14.2184 8.85527 14.0783 8.75037 13.9749C8.64548 13.8716 8.50321 13.8135 8.35487 13.8135H5.37182C5.22348 13.8135 5.08121 13.8716 4.97632 13.9749C4.87143 14.0783 4.8125 14.2184 4.8125 14.3646C4.8125 14.5107 4.87143 14.6508 4.97632 14.7542C5.08121 14.8575 5.22348 14.9156 5.37182 14.9156H8.35487C8.50321 14.9156 8.64548 14.8575 8.75037 14.7542Z" fill="#50BEA7"/>
<path d="M17.6573 14.7266C17.7622 14.6233 17.8211 14.4831 17.8211 14.337C17.8211 14.1908 17.7622 14.0507 17.6573 13.9473C17.5524 13.844 17.4101 13.786 17.2618 13.786H15.7703C15.6219 13.786 15.4797 13.844 15.3748 13.9473C15.2699 14.0507 15.2109 14.1908 15.2109 14.337C15.2109 14.4831 15.2699 14.6233 15.3748 14.7266C15.4797 14.8299 15.6219 14.888 15.7703 14.888H17.2618C17.4101 14.888 17.5524 14.8299 17.6573 14.7266Z" fill="#50BEA7"/>
<path d="M15.3748 10.2739C15.2699 10.3772 15.2109 10.5174 15.2109 10.6635C15.2109 10.8096 15.2699 10.9498 15.3748 11.0531C15.4797 11.1565 15.6219 11.2145 15.7703 11.2145H17.2618C17.4101 11.2145 17.5524 11.1565 17.6573 11.0531C17.7622 10.9498 17.8211 10.8096 17.8211 10.6635C17.8211 10.5174 17.7622 10.3772 17.6573 10.2739C17.5524 10.1705 17.4101 10.1125 17.2618 10.1125H15.7703C15.6219 10.1125 15.4797 10.1705 15.3748 10.2739Z" fill="#50BEA7"/>
</svg>
