<svg width="26" height="26" viewBox="0 0 26 26" fill="none" xmlns="http://www.w3.org/2000/svg">
<path fill-rule="evenodd" clip-rule="evenodd" d="M3.04654 1.27255C4.64076 -0.316509 7.22277 -0.242757 8.81285 1.34216L11.4671 3.98776C13.0571 5.57268 13.1311 8.14632 11.5369 9.73537L11.1688 10.1022C10.8915 10.3786 10.8617 10.8268 11.1252 11.1452C11.6807 11.8162 12.2766 12.4808 12.9199 13.122C13.5632 13.7632 14.23 14.3572 14.9032 14.9109C15.2226 15.1736 15.6722 15.1438 15.9495 14.8674L16.3176 14.5005C17.9118 12.9115 20.4938 12.9852 22.0839 14.5701L24.7381 17.2157C26.3282 18.8007 26.4022 21.3743 24.8079 22.9633L23.0944 24.6714C21.3529 26.4072 18.5038 26.2668 15.7319 25.253C12.8734 24.2076 9.68335 22.106 6.79502 19.227C3.9067 16.3481 1.7982 13.1684 0.749408 10.3192C-0.267633 7.55622 -0.40855 4.71643 1.33294 2.98058L3.04654 1.27255ZM7.40037 2.75007C6.54732 1.89979 5.23078 1.9112 4.45902 2.68045L2.74543 4.38848C2.74543 4.38848 2.74543 4.38848 2.74543 4.38848C1.88435 5.24677 1.66488 7.02577 2.62472 9.63333C3.55281 12.1546 5.47664 15.0971 8.20751 17.8191C10.9384 20.5411 13.8905 22.4587 16.42 23.3838C19.036 24.3405 20.8208 24.1218 21.6819 23.2635L23.3955 21.5554C24.1672 20.7862 24.1787 19.4739 23.3256 18.6236L20.6714 15.978C19.8184 15.1278 18.5018 15.1392 17.7301 15.9084L17.362 16.2753C16.3619 17.2722 14.7508 17.367 13.6318 16.4466C12.9175 15.8591 12.2024 15.2227 11.5074 14.5299C10.8124 13.8372 10.1739 13.1244 9.58453 12.4125C8.66114 11.2971 8.75624 9.69121 9.75636 8.69433L10.1244 8.32747C10.8962 7.55822 10.9076 6.24595 10.0546 5.39566L7.40037 2.75007Z" fill="#50BEA7"/>
<path fill-rule="evenodd" clip-rule="evenodd" d="M16.0653 5.11506C16.2856 4.61103 16.8742 4.38051 17.3799 4.60019C18.235 4.97166 19.035 5.50571 19.7321 6.2005C20.4709 6.93695 21.0285 7.78859 21.4027 8.69855C21.6119 9.20728 21.3678 9.78875 20.8574 9.9973C20.347 10.2059 19.7637 9.96251 19.5544 9.45377C19.2788 8.78366 18.8679 8.15493 18.3196 7.60841C17.8022 7.09268 17.2114 6.69897 16.5818 6.42544C16.0761 6.20577 15.8449 5.61909 16.0653 5.11506Z" fill="#A8DFD3"/>
<path fill-rule="evenodd" clip-rule="evenodd" d="M16.0411 0.656716C16.229 0.139773 16.8017 -0.127475 17.3204 0.0598006C19.2324 0.750251 21.0257 1.85941 22.5563 3.38498C24.1252 4.94887 25.2552 6.78792 25.9436 8.74753C26.1259 9.26645 25.8517 9.83443 25.331 10.0162C24.8104 10.1979 24.2406 9.92451 24.0583 9.40558C23.4668 7.72205 22.4961 6.14086 21.1438 4.79288C19.8245 3.47786 18.2826 2.52496 16.64 1.93182C16.1213 1.74454 15.8532 1.17366 16.0411 0.656716Z" fill="#A8DFD3"/>
</svg>
