<svg width="148" height="176" viewBox="0 0 148 176" fill="none" xmlns="http://www.w3.org/2000/svg">
<g opacity="0.1">
<circle cx="4" cy="4" r="4" fill="#393B4D"/>
<circle cx="4" cy="28" r="4" fill="#393B4D"/>
<circle cx="4" cy="52" r="4" fill="#393B4D"/>
<circle cx="4" cy="76" r="4" fill="#393B4D"/>
<circle cx="4" cy="100" r="4" fill="#393B4D"/>
<circle cx="4" cy="124" r="4" fill="#393B4D"/>
<circle cx="4" cy="148" r="4" fill="#393B4D"/>
<circle cx="4" cy="172" r="4" fill="#393B4D"/>
<circle cx="60" cy="4" r="4" fill="#393B4D"/>
<circle cx="60" cy="28" r="4" fill="#393B4D"/>
<circle cx="60" cy="52" r="4" fill="#393B4D"/>
<circle cx="60" cy="76" r="4" fill="#393B4D"/>
<circle cx="60" cy="100" r="4" fill="#393B4D"/>
<circle cx="60" cy="124" r="4" fill="#393B4D"/>
<circle cx="60" cy="148" r="4" fill="#393B4D"/>
<circle cx="60" cy="172" r="4" fill="#393B4D"/>
<circle cx="116" cy="4" r="4" fill="#393B4D"/>
<circle cx="116" cy="28" r="4" fill="#393B4D"/>
<circle cx="116" cy="52" r="4" fill="#393B4D"/>
<circle cx="116" cy="76" r="4" fill="#393B4D"/>
<circle cx="116" cy="100" r="4" fill="#393B4D"/>
<circle cx="116" cy="124" r="4" fill="#393B4D"/>
<circle cx="116" cy="148" r="4" fill="#393B4D"/>
<circle cx="116" cy="172" r="4" fill="#393B4D"/>
<circle cx="32" cy="4" r="4" fill="#393B4D"/>
<circle cx="32" cy="28" r="4" fill="#393B4D"/>
<circle cx="32" cy="52" r="4" fill="#393B4D"/>
<circle cx="32" cy="76" r="4" fill="#393B4D"/>
<circle cx="32" cy="100" r="4" fill="#393B4D"/>
<circle cx="32" cy="124" r="4" fill="#393B4D"/>
<circle cx="32" cy="148" r="4" fill="#393B4D"/>
<circle cx="32" cy="172" r="4" fill="#393B4D"/>
<circle cx="88" cy="4" r="4" fill="#393B4D"/>
<circle cx="88" cy="28" r="4" fill="#393B4D"/>
<circle cx="88" cy="52" r="4" fill="#393B4D"/>
<circle cx="88" cy="76" r="4" fill="#393B4D"/>
<circle cx="88" cy="100" r="4" fill="#393B4D"/>
<circle cx="88" cy="124" r="4" fill="#393B4D"/>
<circle cx="88" cy="148" r="4" fill="#393B4D"/>
<circle cx="88" cy="172" r="4" fill="#393B4D"/>
<circle cx="144" cy="4" r="4" fill="#393B4D"/>
<circle cx="144" cy="28" r="4" fill="#393B4D"/>
<circle cx="144" cy="52" r="4" fill="#393B4D"/>
<circle cx="144" cy="76" r="4" fill="#393B4D"/>
<circle cx="144" cy="100" r="4" fill="#393B4D"/>
<circle cx="144" cy="124" r="4" fill="#393B4D"/>
<circle cx="144" cy="148" r="4" fill="#393B4D"/>
<circle cx="144" cy="172" r="4" fill="#393B4D"/>
</g>
</svg>
