<svg width="59" height="58" viewBox="0 0 59 58" fill="none" xmlns="http://www.w3.org/2000/svg">
<rect opacity="0.06" x="0.917969" y="0.104614" width="57.7907" height="57.7907" rx="8.25581" fill="#1877F2"/>
<path d="M39.4452 16.6162H20.1816C18.6681 16.6162 17.4297 17.8546 17.4297 19.3681V38.6317C17.4297 40.1467 18.6681 41.3837 20.1816 41.3837H29.8134V31.7519H27.0615V28.3463H29.8134V25.5256C29.8134 22.548 31.4811 20.4565 34.9953 20.4565L37.4762 20.4593V24.0437H35.8291C34.4614 24.0437 33.9413 25.0702 33.9413 26.0223V28.3477H37.4748L36.6933 31.7519H33.9413V41.3837H39.4452C40.9588 41.3837 42.1971 40.1467 42.1971 38.6317V19.3681C42.1971 17.8546 40.9588 16.6162 39.4452 16.6162Z" fill="#1877F2"/>
</svg>
