<svg width="59" height="58" viewBox="0 0 59 58" fill="none" xmlns="http://www.w3.org/2000/svg">
<rect opacity="0.1" x="0.710938" y="0.104614" width="57.7907" height="57.7907" rx="8.25581" fill="#0A66C2"/>
<path d="M22.7265 19.3681C22.7265 20.8294 21.7496 22.0871 19.9732 22.0871C18.3014 22.0871 17.2227 20.901 17.2227 19.4397C17.2227 17.9399 18.2684 16.6162 19.9746 16.6162C21.6808 16.6162 22.6935 17.8683 22.7265 19.3681ZM17.2227 41.3837V23.4961H22.7265V41.3837H17.2227Z" fill="#0A66C2"/>
<path d="M25.4785 29.6109C25.4785 27.485 25.4083 25.7086 25.3381 24.1744H30.2834L30.5283 26.5452H30.6328C31.3291 25.4293 33.0353 23.7933 35.8918 23.7933C39.3758 23.7933 41.9901 26.1255 41.9901 31.1437V41.3837H36.4862V31.9431C36.4862 29.7498 35.651 28.0767 33.7343 28.0767C32.273 28.0767 31.541 29.26 31.1571 30.2356C31.0167 30.585 30.9823 31.0721 30.9823 31.5606V41.3837H25.4785V29.6109Z" fill="#0A66C2"/>
</svg>
