<svg width="22" height="26" viewBox="0 0 22 26" fill="none" xmlns="http://www.w3.org/2000/svg">
<path fill-rule="evenodd" clip-rule="evenodd" d="M11 1.90244C5.95699 1.90244 1.88571 5.98128 1.88571 10.9919C1.88571 14.0945 3.72275 17.3908 5.93191 19.9815C7.02246 21.2604 8.16676 22.3232 9.14352 23.0578C9.63279 23.4258 10.0648 23.6999 10.4144 23.8776C10.5889 23.9662 10.7311 24.0248 10.8407 24.0598C10.9445 24.0931 10.994 24.097 10.9997 24.0975C10.9958 24.0975 11.0445 24.0966 11.1593 24.0598C11.2689 24.0248 11.4111 23.9662 11.5856 23.8776C11.9352 23.6999 12.3672 23.4258 12.8565 23.0578C13.8332 22.3232 14.9775 21.2604 16.0681 19.9815C18.2772 17.3908 20.1143 14.0945 20.1143 10.9919C20.1143 5.98128 16.043 1.90244 11 1.90244ZM0 10.9919C0 4.91186 4.9342 0 11 0C17.0658 0 22 4.91186 22 10.9919C22 14.7733 19.8142 18.5055 17.4976 21.2222C16.3253 22.597 15.081 23.7577 13.9835 24.5831C13.4356 24.9951 12.909 25.3352 12.4337 25.5767C11.9881 25.8031 11.4793 26 11 26C10.5207 26 10.0119 25.8031 9.56627 25.5767C9.09095 25.3352 8.56436 24.9951 8.01648 24.5831C6.91895 23.7577 5.67469 22.597 4.50238 21.2222C2.18582 18.5055 0 14.7733 0 10.9919Z" fill="#50BEA7"/>
<path fill-rule="evenodd" clip-rule="evenodd" d="M11 7.60976C12.5622 7.60976 13.8286 8.88738 13.8286 10.4634C13.8286 12.0394 12.5622 13.3171 11 13.3171C9.43782 13.3171 8.17143 12.0394 8.17143 10.4634C8.17143 8.88738 9.43782 7.60976 11 7.60976ZM15.7143 10.4634C15.7143 7.83669 13.6036 5.70732 11 5.70732C8.39637 5.70732 6.28571 7.83669 6.28571 10.4634C6.28571 13.0901 8.39637 15.2195 11 15.2195C13.6036 15.2195 15.7143 13.0901 15.7143 10.4634Z" fill="#A8DFD3"/>
</svg>
