<svg width="28" height="22" viewBox="0 0 28 22" fill="none" xmlns="http://www.w3.org/2000/svg">
<path fill-rule="evenodd" clip-rule="evenodd" d="M0.5625 7.25C0.5625 3.28045 3.78045 0.0625 7.75 0.0625H20.25C24.2195 0.0625 27.4375 3.28045 27.4375 7.25V14.75C27.4375 18.7195 24.2195 21.9375 20.25 21.9375H7.75C3.78045 21.9375 0.5625 18.7195 0.5625 14.75V7.25ZM7.75 1.9375C4.81599 1.9375 2.4375 4.31599 2.4375 7.25V14.75C2.4375 17.684 4.81599 20.0625 7.75 20.0625H20.25C23.184 20.0625 25.5625 17.684 25.5625 14.75V7.25C25.5625 4.31599 23.184 1.9375 20.25 1.9375H7.75Z" fill="#50BEA7"/>
<path fill-rule="evenodd" clip-rule="evenodd" d="M5.75 6.6875C6.06066 6.27329 6.64829 6.18934 7.0625 6.5L13.0625 11C13.6181 11.4167 14.3819 11.4167 14.9375 11L20.9375 6.5C21.3517 6.18934 21.9393 6.27329 22.25 6.6875C22.5607 7.10171 22.4767 7.68934 22.0625 8L16.0625 12.5C14.8403 13.4167 13.1597 13.4167 11.9375 12.5L5.9375 8C5.52329 7.68934 5.43934 7.10171 5.75 6.6875Z" fill="#A8DFD3"/>
</svg>
