<svg width="130" height="150" viewBox="0 0 130 150" fill="none" xmlns="http://www.w3.org/2000/svg">
<g opacity="0.2">
<path d="M4.53487 1.17936C4.70133 0.757285 5.29867 0.757285 5.46513 1.17936L6.33454 3.38377C6.38536 3.51263 6.48737 3.61464 6.61623 3.66546L8.82064 4.53487C9.24271 4.70133 9.24271 5.29867 8.82064 5.46513L6.61623 6.33454C6.48737 6.38536 6.38536 6.48737 6.33454 6.61623L5.46513 8.82064C5.29867 9.24271 4.70133 9.24271 4.53487 8.82064L3.66546 6.61623C3.61464 6.48737 3.51263 6.38536 3.38377 6.33454L1.17936 5.46513C0.757285 5.29867 0.757285 4.70133 1.17936 4.53487L3.38377 3.66546C3.51263 3.61464 3.61464 3.51263 3.66546 3.38377L4.53487 1.17936Z" fill="#393B4D"/>
<path d="M4.53487 21.1794C4.70133 20.7573 5.29867 20.7573 5.46513 21.1794L6.33454 23.3838C6.38536 23.5126 6.48737 23.6146 6.61623 23.6655L8.82064 24.5349C9.24271 24.7013 9.24271 25.2987 8.82064 25.4651L6.61623 26.3345C6.48737 26.3854 6.38536 26.4874 6.33454 26.6162L5.46513 28.8206C5.29867 29.2427 4.70133 29.2427 4.53487 28.8206L3.66546 26.6162C3.61464 26.4874 3.51263 26.3854 3.38377 26.3345L1.17936 25.4651C0.757285 25.2987 0.757285 24.7013 1.17936 24.5349L3.38377 23.6655C3.51263 23.6146 3.61464 23.5126 3.66546 23.3838L4.53487 21.1794Z" fill="#393B4D"/>
<path d="M4.53487 41.1794C4.70133 40.7573 5.29867 40.7573 5.46513 41.1794L6.33454 43.3838C6.38536 43.5126 6.48737 43.6146 6.61623 43.6655L8.82064 44.5349C9.24271 44.7013 9.24271 45.2987 8.82064 45.4651L6.61623 46.3345C6.48737 46.3854 6.38536 46.4874 6.33454 46.6162L5.46513 48.8206C5.29867 49.2427 4.70133 49.2427 4.53487 48.8206L3.66546 46.6162C3.61464 46.4874 3.51263 46.3854 3.38377 46.3345L1.17936 45.4651C0.757285 45.2987 0.757285 44.7013 1.17936 44.5349L3.38377 43.6655C3.51263 43.6146 3.61464 43.5126 3.66546 43.3838L4.53487 41.1794Z" fill="#393B4D"/>
<path d="M4.53487 61.1794C4.70133 60.7573 5.29867 60.7573 5.46513 61.1794L6.33454 63.3838C6.38536 63.5126 6.48737 63.6146 6.61623 63.6655L8.82064 64.5349C9.24271 64.7013 9.24271 65.2987 8.82064 65.4651L6.61623 66.3345C6.48737 66.3854 6.38536 66.4874 6.33454 66.6162L5.46513 68.8206C5.29867 69.2427 4.70133 69.2427 4.53487 68.8206L3.66546 66.6162C3.61464 66.4874 3.51263 66.3854 3.38377 66.3345L1.17936 65.4651C0.757285 65.2987 0.757285 64.7013 1.17936 64.5349L3.38377 63.6655C3.51263 63.6146 3.61464 63.5126 3.66546 63.3838L4.53487 61.1794Z" fill="#393B4D"/>
<path d="M4.53487 81.1794C4.70133 80.7573 5.29867 80.7573 5.46513 81.1794L6.33454 83.3838C6.38536 83.5126 6.48737 83.6146 6.61623 83.6655L8.82064 84.5349C9.24271 84.7013 9.24271 85.2987 8.82064 85.4651L6.61623 86.3345C6.48737 86.3854 6.38536 86.4874 6.33454 86.6162L5.46513 88.8206C5.29867 89.2427 4.70133 89.2427 4.53487 88.8206L3.66546 86.6162C3.61464 86.4874 3.51263 86.3854 3.38377 86.3345L1.17936 85.4651C0.757285 85.2987 0.757285 84.7013 1.17936 84.5349L3.38377 83.6655C3.51263 83.6146 3.61464 83.5126 3.66546 83.3838L4.53487 81.1794Z" fill="#393B4D"/>
<path d="M4.53487 101.179C4.70133 100.757 5.29867 100.757 5.46513 101.179L6.33454 103.384C6.38536 103.513 6.48737 103.615 6.61623 103.665L8.82064 104.535C9.24271 104.701 9.24271 105.299 8.82064 105.465L6.61623 106.335C6.48737 106.385 6.38536 106.487 6.33454 106.616L5.46513 108.821C5.29867 109.243 4.70133 109.243 4.53487 108.821L3.66546 106.616C3.61464 106.487 3.51263 106.385 3.38377 106.335L1.17936 105.465C0.757285 105.299 0.757285 104.701 1.17936 104.535L3.38377 103.665C3.51263 103.615 3.61464 103.513 3.66546 103.384L4.53487 101.179Z" fill="#393B4D"/>
<path d="M4.53487 121.179C4.70133 120.757 5.29867 120.757 5.46513 121.179L6.33454 123.384C6.38536 123.513 6.48737 123.615 6.61623 123.665L8.82064 124.535C9.24271 124.701 9.24271 125.299 8.82064 125.465L6.61623 126.335C6.48737 126.385 6.38536 126.487 6.33454 126.616L5.46513 128.821C5.29867 129.243 4.70133 129.243 4.53487 128.821L3.66546 126.616C3.61464 126.487 3.51263 126.385 3.38377 126.335L1.17936 125.465C0.757285 125.299 0.757285 124.701 1.17936 124.535L3.38377 123.665C3.51263 123.615 3.61464 123.513 3.66546 123.384L4.53487 121.179Z" fill="#393B4D"/>
<path d="M4.53487 141.179C4.70133 140.757 5.29867 140.757 5.46513 141.179L6.33454 143.384C6.38536 143.513 6.48737 143.615 6.61623 143.665L8.82064 144.535C9.24271 144.701 9.24271 145.299 8.82064 145.465L6.61623 146.335C6.48737 146.385 6.38536 146.487 6.33454 146.616L5.46513 148.821C5.29867 149.243 4.70133 149.243 4.53487 148.821L3.66546 146.616C3.61464 146.487 3.51263 146.385 3.38377 146.335L1.17936 145.465C0.757285 145.299 0.757285 144.701 1.17936 144.535L3.38377 143.665C3.51263 143.615 3.61464 143.513 3.66546 143.384L4.53487 141.179Z" fill="#393B4D"/>
<path d="M28.5349 1.17936C28.7013 0.757285 29.2987 0.757285 29.4651 1.17936L30.3345 3.38377C30.3854 3.51263 30.4874 3.61464 30.6162 3.66546L32.8206 4.53487C33.2427 4.70133 33.2427 5.29867 32.8206 5.46513L30.6162 6.33454C30.4874 6.38536 30.3854 6.48737 30.3345 6.61623L29.4651 8.82064C29.2987 9.24271 28.7013 9.24271 28.5349 8.82064L27.6655 6.61623C27.6146 6.48737 27.5126 6.38536 27.3838 6.33454L25.1794 5.46513C24.7573 5.29867 24.7573 4.70133 25.1794 4.53487L27.3838 3.66546C27.5126 3.61464 27.6146 3.51263 27.6655 3.38377L28.5349 1.17936Z" fill="#393B4D"/>
<path d="M28.5349 21.1794C28.7013 20.7573 29.2987 20.7573 29.4651 21.1794L30.3345 23.3838C30.3854 23.5126 30.4874 23.6146 30.6162 23.6655L32.8206 24.5349C33.2427 24.7013 33.2427 25.2987 32.8206 25.4651L30.6162 26.3345C30.4874 26.3854 30.3854 26.4874 30.3345 26.6162L29.4651 28.8206C29.2987 29.2427 28.7013 29.2427 28.5349 28.8206L27.6655 26.6162C27.6146 26.4874 27.5126 26.3854 27.3838 26.3345L25.1794 25.4651C24.7573 25.2987 24.7573 24.7013 25.1794 24.5349L27.3838 23.6655C27.5126 23.6146 27.6146 23.5126 27.6655 23.3838L28.5349 21.1794Z" fill="#393B4D"/>
<path d="M28.5349 41.1794C28.7013 40.7573 29.2987 40.7573 29.4651 41.1794L30.3345 43.3838C30.3854 43.5126 30.4874 43.6146 30.6162 43.6655L32.8206 44.5349C33.2427 44.7013 33.2427 45.2987 32.8206 45.4651L30.6162 46.3345C30.4874 46.3854 30.3854 46.4874 30.3345 46.6162L29.4651 48.8206C29.2987 49.2427 28.7013 49.2427 28.5349 48.8206L27.6655 46.6162C27.6146 46.4874 27.5126 46.3854 27.3838 46.3345L25.1794 45.4651C24.7573 45.2987 24.7573 44.7013 25.1794 44.5349L27.3838 43.6655C27.5126 43.6146 27.6146 43.5126 27.6655 43.3838L28.5349 41.1794Z" fill="#393B4D"/>
<path d="M28.5349 61.1794C28.7013 60.7573 29.2987 60.7573 29.4651 61.1794L30.3345 63.3838C30.3854 63.5126 30.4874 63.6146 30.6162 63.6655L32.8206 64.5349C33.2427 64.7013 33.2427 65.2987 32.8206 65.4651L30.6162 66.3345C30.4874 66.3854 30.3854 66.4874 30.3345 66.6162L29.4651 68.8206C29.2987 69.2427 28.7013 69.2427 28.5349 68.8206L27.6655 66.6162C27.6146 66.4874 27.5126 66.3854 27.3838 66.3345L25.1794 65.4651C24.7573 65.2987 24.7573 64.7013 25.1794 64.5349L27.3838 63.6655C27.5126 63.6146 27.6146 63.5126 27.6655 63.3838L28.5349 61.1794Z" fill="#393B4D"/>
<path d="M28.5349 81.1794C28.7013 80.7573 29.2987 80.7573 29.4651 81.1794L30.3345 83.3838C30.3854 83.5126 30.4874 83.6146 30.6162 83.6655L32.8206 84.5349C33.2427 84.7013 33.2427 85.2987 32.8206 85.4651L30.6162 86.3345C30.4874 86.3854 30.3854 86.4874 30.3345 86.6162L29.4651 88.8206C29.2987 89.2427 28.7013 89.2427 28.5349 88.8206L27.6655 86.6162C27.6146 86.4874 27.5126 86.3854 27.3838 86.3345L25.1794 85.4651C24.7573 85.2987 24.7573 84.7013 25.1794 84.5349L27.3838 83.6655C27.5126 83.6146 27.6146 83.5126 27.6655 83.3838L28.5349 81.1794Z" fill="#393B4D"/>
<path d="M28.5349 101.179C28.7013 100.757 29.2987 100.757 29.4651 101.179L30.3345 103.384C30.3854 103.513 30.4874 103.615 30.6162 103.665L32.8206 104.535C33.2427 104.701 33.2427 105.299 32.8206 105.465L30.6162 106.335C30.4874 106.385 30.3854 106.487 30.3345 106.616L29.4651 108.821C29.2987 109.243 28.7013 109.243 28.5349 108.821L27.6655 106.616C27.6146 106.487 27.5126 106.385 27.3838 106.335L25.1794 105.465C24.7573 105.299 24.7573 104.701 25.1794 104.535L27.3838 103.665C27.5126 103.615 27.6146 103.513 27.6655 103.384L28.5349 101.179Z" fill="#393B4D"/>
<path d="M28.5349 121.179C28.7013 120.757 29.2987 120.757 29.4651 121.179L30.3345 123.384C30.3854 123.513 30.4874 123.615 30.6162 123.665L32.8206 124.535C33.2427 124.701 33.2427 125.299 32.8206 125.465L30.6162 126.335C30.4874 126.385 30.3854 126.487 30.3345 126.616L29.4651 128.821C29.2987 129.243 28.7013 129.243 28.5349 128.821L27.6655 126.616C27.6146 126.487 27.5126 126.385 27.3838 126.335L25.1794 125.465C24.7573 125.299 24.7573 124.701 25.1794 124.535L27.3838 123.665C27.5126 123.615 27.6146 123.513 27.6655 123.384L28.5349 121.179Z" fill="#393B4D"/>
<path d="M28.5349 141.179C28.7013 140.757 29.2987 140.757 29.4651 141.179L30.3345 143.384C30.3854 143.513 30.4874 143.615 30.6162 143.665L32.8206 144.535C33.2427 144.701 33.2427 145.299 32.8206 145.465L30.6162 146.335C30.4874 146.385 30.3854 146.487 30.3345 146.616L29.4651 148.821C29.2987 149.243 28.7013 149.243 28.5349 148.821L27.6655 146.616C27.6146 146.487 27.5126 146.385 27.3838 146.335L25.1794 145.465C24.7573 145.299 24.7573 144.701 25.1794 144.535L27.3838 143.665C27.5126 143.615 27.6146 143.513 27.6655 143.384L28.5349 141.179Z" fill="#393B4D"/>
<path d="M52.5349 1.17936C52.7013 0.757285 53.2987 0.757285 53.4651 1.17936L54.3345 3.38377C54.3854 3.51263 54.4874 3.61464 54.6162 3.66546L56.8206 4.53487C57.2427 4.70133 57.2427 5.29867 56.8206 5.46513L54.6162 6.33454C54.4874 6.38536 54.3854 6.48737 54.3345 6.61623L53.4651 8.82064C53.2987 9.24271 52.7013 9.24271 52.5349 8.82064L51.6655 6.61623C51.6146 6.48737 51.5126 6.38536 51.3838 6.33454L49.1794 5.46513C48.7573 5.29867 48.7573 4.70133 49.1794 4.53487L51.3838 3.66546C51.5126 3.61464 51.6146 3.51263 51.6655 3.38377L52.5349 1.17936Z" fill="#393B4D"/>
<path d="M52.5349 21.1794C52.7013 20.7573 53.2987 20.7573 53.4651 21.1794L54.3345 23.3838C54.3854 23.5126 54.4874 23.6146 54.6162 23.6655L56.8206 24.5349C57.2427 24.7013 57.2427 25.2987 56.8206 25.4651L54.6162 26.3345C54.4874 26.3854 54.3854 26.4874 54.3345 26.6162L53.4651 28.8206C53.2987 29.2427 52.7013 29.2427 52.5349 28.8206L51.6655 26.6162C51.6146 26.4874 51.5126 26.3854 51.3838 26.3345L49.1794 25.4651C48.7573 25.2987 48.7573 24.7013 49.1794 24.5349L51.3838 23.6655C51.5126 23.6146 51.6146 23.5126 51.6655 23.3838L52.5349 21.1794Z" fill="#393B4D"/>
<path d="M52.5349 41.1794C52.7013 40.7573 53.2987 40.7573 53.4651 41.1794L54.3345 43.3838C54.3854 43.5126 54.4874 43.6146 54.6162 43.6655L56.8206 44.5349C57.2427 44.7013 57.2427 45.2987 56.8206 45.4651L54.6162 46.3345C54.4874 46.3854 54.3854 46.4874 54.3345 46.6162L53.4651 48.8206C53.2987 49.2427 52.7013 49.2427 52.5349 48.8206L51.6655 46.6162C51.6146 46.4874 51.5126 46.3854 51.3838 46.3345L49.1794 45.4651C48.7573 45.2987 48.7573 44.7013 49.1794 44.5349L51.3838 43.6655C51.5126 43.6146 51.6146 43.5126 51.6655 43.3838L52.5349 41.1794Z" fill="#393B4D"/>
<path d="M52.5349 61.1794C52.7013 60.7573 53.2987 60.7573 53.4651 61.1794L54.3345 63.3838C54.3854 63.5126 54.4874 63.6146 54.6162 63.6655L56.8206 64.5349C57.2427 64.7013 57.2427 65.2987 56.8206 65.4651L54.6162 66.3345C54.4874 66.3854 54.3854 66.4874 54.3345 66.6162L53.4651 68.8206C53.2987 69.2427 52.7013 69.2427 52.5349 68.8206L51.6655 66.6162C51.6146 66.4874 51.5126 66.3854 51.3838 66.3345L49.1794 65.4651C48.7573 65.2987 48.7573 64.7013 49.1794 64.5349L51.3838 63.6655C51.5126 63.6146 51.6146 63.5126 51.6655 63.3838L52.5349 61.1794Z" fill="#393B4D"/>
<path d="M52.5349 81.1794C52.7013 80.7573 53.2987 80.7573 53.4651 81.1794L54.3345 83.3838C54.3854 83.5126 54.4874 83.6146 54.6162 83.6655L56.8206 84.5349C57.2427 84.7013 57.2427 85.2987 56.8206 85.4651L54.6162 86.3345C54.4874 86.3854 54.3854 86.4874 54.3345 86.6162L53.4651 88.8206C53.2987 89.2427 52.7013 89.2427 52.5349 88.8206L51.6655 86.6162C51.6146 86.4874 51.5126 86.3854 51.3838 86.3345L49.1794 85.4651C48.7573 85.2987 48.7573 84.7013 49.1794 84.5349L51.3838 83.6655C51.5126 83.6146 51.6146 83.5126 51.6655 83.3838L52.5349 81.1794Z" fill="#393B4D"/>
<path d="M52.5349 101.179C52.7013 100.757 53.2987 100.757 53.4651 101.179L54.3345 103.384C54.3854 103.513 54.4874 103.615 54.6162 103.665L56.8206 104.535C57.2427 104.701 57.2427 105.299 56.8206 105.465L54.6162 106.335C54.4874 106.385 54.3854 106.487 54.3345 106.616L53.4651 108.821C53.2987 109.243 52.7013 109.243 52.5349 108.821L51.6655 106.616C51.6146 106.487 51.5126 106.385 51.3838 106.335L49.1794 105.465C48.7573 105.299 48.7573 104.701 49.1794 104.535L51.3838 103.665C51.5126 103.615 51.6146 103.513 51.6655 103.384L52.5349 101.179Z" fill="#393B4D"/>
<path d="M52.5349 121.179C52.7013 120.757 53.2987 120.757 53.4651 121.179L54.3345 123.384C54.3854 123.513 54.4874 123.615 54.6162 123.665L56.8206 124.535C57.2427 124.701 57.2427 125.299 56.8206 125.465L54.6162 126.335C54.4874 126.385 54.3854 126.487 54.3345 126.616L53.4651 128.821C53.2987 129.243 52.7013 129.243 52.5349 128.821L51.6655 126.616C51.6146 126.487 51.5126 126.385 51.3838 126.335L49.1794 125.465C48.7573 125.299 48.7573 124.701 49.1794 124.535L51.3838 123.665C51.5126 123.615 51.6146 123.513 51.6655 123.384L52.5349 121.179Z" fill="#393B4D"/>
<path d="M52.5349 141.179C52.7013 140.757 53.2987 140.757 53.4651 141.179L54.3345 143.384C54.3854 143.513 54.4874 143.615 54.6162 143.665L56.8206 144.535C57.2427 144.701 57.2427 145.299 56.8206 145.465L54.6162 146.335C54.4874 146.385 54.3854 146.487 54.3345 146.616L53.4651 148.821C53.2987 149.243 52.7013 149.243 52.5349 148.821L51.6655 146.616C51.6146 146.487 51.5126 146.385 51.3838 146.335L49.1794 145.465C48.7573 145.299 48.7573 144.701 49.1794 144.535L51.3838 143.665C51.5126 143.615 51.6146 143.513 51.6655 143.384L52.5349 141.179Z" fill="#393B4D"/>
<path d="M76.5349 1.17936C76.7013 0.757285 77.2987 0.757285 77.4651 1.17936L78.3345 3.38377C78.3854 3.51263 78.4874 3.61464 78.6162 3.66546L80.8206 4.53487C81.2427 4.70133 81.2427 5.29867 80.8206 5.46513L78.6162 6.33454C78.4874 6.38536 78.3854 6.48737 78.3345 6.61623L77.4651 8.82064C77.2987 9.24271 76.7013 9.24271 76.5349 8.82064L75.6655 6.61623C75.6146 6.48737 75.5126 6.38536 75.3838 6.33454L73.1794 5.46513C72.7573 5.29867 72.7573 4.70133 73.1794 4.53487L75.3838 3.66546C75.5126 3.61464 75.6146 3.51263 75.6655 3.38377L76.5349 1.17936Z" fill="#393B4D"/>
<path d="M76.5349 21.1794C76.7013 20.7573 77.2987 20.7573 77.4651 21.1794L78.3345 23.3838C78.3854 23.5126 78.4874 23.6146 78.6162 23.6655L80.8206 24.5349C81.2427 24.7013 81.2427 25.2987 80.8206 25.4651L78.6162 26.3345C78.4874 26.3854 78.3854 26.4874 78.3345 26.6162L77.4651 28.8206C77.2987 29.2427 76.7013 29.2427 76.5349 28.8206L75.6655 26.6162C75.6146 26.4874 75.5126 26.3854 75.3838 26.3345L73.1794 25.4651C72.7573 25.2987 72.7573 24.7013 73.1794 24.5349L75.3838 23.6655C75.5126 23.6146 75.6146 23.5126 75.6655 23.3838L76.5349 21.1794Z" fill="#393B4D"/>
<path d="M76.5349 41.1794C76.7013 40.7573 77.2987 40.7573 77.4651 41.1794L78.3345 43.3838C78.3854 43.5126 78.4874 43.6146 78.6162 43.6655L80.8206 44.5349C81.2427 44.7013 81.2427 45.2987 80.8206 45.4651L78.6162 46.3345C78.4874 46.3854 78.3854 46.4874 78.3345 46.6162L77.4651 48.8206C77.2987 49.2427 76.7013 49.2427 76.5349 48.8206L75.6655 46.6162C75.6146 46.4874 75.5126 46.3854 75.3838 46.3345L73.1794 45.4651C72.7573 45.2987 72.7573 44.7013 73.1794 44.5349L75.3838 43.6655C75.5126 43.6146 75.6146 43.5126 75.6655 43.3838L76.5349 41.1794Z" fill="#393B4D"/>
<path d="M76.5349 61.1794C76.7013 60.7573 77.2987 60.7573 77.4651 61.1794L78.3345 63.3838C78.3854 63.5126 78.4874 63.6146 78.6162 63.6655L80.8206 64.5349C81.2427 64.7013 81.2427 65.2987 80.8206 65.4651L78.6162 66.3345C78.4874 66.3854 78.3854 66.4874 78.3345 66.6162L77.4651 68.8206C77.2987 69.2427 76.7013 69.2427 76.5349 68.8206L75.6655 66.6162C75.6146 66.4874 75.5126 66.3854 75.3838 66.3345L73.1794 65.4651C72.7573 65.2987 72.7573 64.7013 73.1794 64.5349L75.3838 63.6655C75.5126 63.6146 75.6146 63.5126 75.6655 63.3838L76.5349 61.1794Z" fill="#393B4D"/>
<path d="M76.5349 81.1794C76.7013 80.7573 77.2987 80.7573 77.4651 81.1794L78.3345 83.3838C78.3854 83.5126 78.4874 83.6146 78.6162 83.6655L80.8206 84.5349C81.2427 84.7013 81.2427 85.2987 80.8206 85.4651L78.6162 86.3345C78.4874 86.3854 78.3854 86.4874 78.3345 86.6162L77.4651 88.8206C77.2987 89.2427 76.7013 89.2427 76.5349 88.8206L75.6655 86.6162C75.6146 86.4874 75.5126 86.3854 75.3838 86.3345L73.1794 85.4651C72.7573 85.2987 72.7573 84.7013 73.1794 84.5349L75.3838 83.6655C75.5126 83.6146 75.6146 83.5126 75.6655 83.3838L76.5349 81.1794Z" fill="#393B4D"/>
<path d="M76.5349 101.179C76.7013 100.757 77.2987 100.757 77.4651 101.179L78.3345 103.384C78.3854 103.513 78.4874 103.615 78.6162 103.665L80.8206 104.535C81.2427 104.701 81.2427 105.299 80.8206 105.465L78.6162 106.335C78.4874 106.385 78.3854 106.487 78.3345 106.616L77.4651 108.821C77.2987 109.243 76.7013 109.243 76.5349 108.821L75.6655 106.616C75.6146 106.487 75.5126 106.385 75.3838 106.335L73.1794 105.465C72.7573 105.299 72.7573 104.701 73.1794 104.535L75.3838 103.665C75.5126 103.615 75.6146 103.513 75.6655 103.384L76.5349 101.179Z" fill="#393B4D"/>
<path d="M76.5349 121.179C76.7013 120.757 77.2987 120.757 77.4651 121.179L78.3345 123.384C78.3854 123.513 78.4874 123.615 78.6162 123.665L80.8206 124.535C81.2427 124.701 81.2427 125.299 80.8206 125.465L78.6162 126.335C78.4874 126.385 78.3854 126.487 78.3345 126.616L77.4651 128.821C77.2987 129.243 76.7013 129.243 76.5349 128.821L75.6655 126.616C75.6146 126.487 75.5126 126.385 75.3838 126.335L73.1794 125.465C72.7573 125.299 72.7573 124.701 73.1794 124.535L75.3838 123.665C75.5126 123.615 75.6146 123.513 75.6655 123.384L76.5349 121.179Z" fill="#393B4D"/>
<path d="M76.5349 141.179C76.7013 140.757 77.2987 140.757 77.4651 141.179L78.3345 143.384C78.3854 143.513 78.4874 143.615 78.6162 143.665L80.8206 144.535C81.2427 144.701 81.2427 145.299 80.8206 145.465L78.6162 146.335C78.4874 146.385 78.3854 146.487 78.3345 146.616L77.4651 148.821C77.2987 149.243 76.7013 149.243 76.5349 148.821L75.6655 146.616C75.6146 146.487 75.5126 146.385 75.3838 146.335L73.1794 145.465C72.7573 145.299 72.7573 144.701 73.1794 144.535L75.3838 143.665C75.5126 143.615 75.6146 143.513 75.6655 143.384L76.5349 141.179Z" fill="#393B4D"/>
<path d="M100.535 1.17936C100.701 0.757285 101.299 0.757285 101.465 1.17936L102.335 3.38377C102.385 3.51263 102.487 3.61464 102.616 3.66546L104.821 4.53487C105.243 4.70133 105.243 5.29867 104.821 5.46513L102.616 6.33454C102.487 6.38536 102.385 6.48737 102.335 6.61623L101.465 8.82064C101.299 9.24271 100.701 9.24271 100.535 8.82064L99.6655 6.61623C99.6146 6.48737 99.5126 6.38536 99.3838 6.33454L97.1794 5.46513C96.7573 5.29867 96.7573 4.70133 97.1794 4.53487L99.3838 3.66546C99.5126 3.61464 99.6146 3.51263 99.6655 3.38377L100.535 1.17936Z" fill="#393B4D"/>
<path d="M100.535 21.1794C100.701 20.7573 101.299 20.7573 101.465 21.1794L102.335 23.3838C102.385 23.5126 102.487 23.6146 102.616 23.6655L104.821 24.5349C105.243 24.7013 105.243 25.2987 104.821 25.4651L102.616 26.3345C102.487 26.3854 102.385 26.4874 102.335 26.6162L101.465 28.8206C101.299 29.2427 100.701 29.2427 100.535 28.8206L99.6655 26.6162C99.6146 26.4874 99.5126 26.3854 99.3838 26.3345L97.1794 25.4651C96.7573 25.2987 96.7573 24.7013 97.1794 24.5349L99.3838 23.6655C99.5126 23.6146 99.6146 23.5126 99.6655 23.3838L100.535 21.1794Z" fill="#393B4D"/>
<path d="M100.535 41.1794C100.701 40.7573 101.299 40.7573 101.465 41.1794L102.335 43.3838C102.385 43.5126 102.487 43.6146 102.616 43.6655L104.821 44.5349C105.243 44.7013 105.243 45.2987 104.821 45.4651L102.616 46.3345C102.487 46.3854 102.385 46.4874 102.335 46.6162L101.465 48.8206C101.299 49.2427 100.701 49.2427 100.535 48.8206L99.6655 46.6162C99.6146 46.4874 99.5126 46.3854 99.3838 46.3345L97.1794 45.4651C96.7573 45.2987 96.7573 44.7013 97.1794 44.5349L99.3838 43.6655C99.5126 43.6146 99.6146 43.5126 99.6655 43.3838L100.535 41.1794Z" fill="#393B4D"/>
<path d="M100.535 61.1794C100.701 60.7573 101.299 60.7573 101.465 61.1794L102.335 63.3838C102.385 63.5126 102.487 63.6146 102.616 63.6655L104.821 64.5349C105.243 64.7013 105.243 65.2987 104.821 65.4651L102.616 66.3345C102.487 66.3854 102.385 66.4874 102.335 66.6162L101.465 68.8206C101.299 69.2427 100.701 69.2427 100.535 68.8206L99.6655 66.6162C99.6146 66.4874 99.5126 66.3854 99.3838 66.3345L97.1794 65.4651C96.7573 65.2987 96.7573 64.7013 97.1794 64.5349L99.3838 63.6655C99.5126 63.6146 99.6146 63.5126 99.6655 63.3838L100.535 61.1794Z" fill="#393B4D"/>
<path d="M100.535 81.1794C100.701 80.7573 101.299 80.7573 101.465 81.1794L102.335 83.3838C102.385 83.5126 102.487 83.6146 102.616 83.6655L104.821 84.5349C105.243 84.7013 105.243 85.2987 104.821 85.4651L102.616 86.3345C102.487 86.3854 102.385 86.4874 102.335 86.6162L101.465 88.8206C101.299 89.2427 100.701 89.2427 100.535 88.8206L99.6655 86.6162C99.6146 86.4874 99.5126 86.3854 99.3838 86.3345L97.1794 85.4651C96.7573 85.2987 96.7573 84.7013 97.1794 84.5349L99.3838 83.6655C99.5126 83.6146 99.6146 83.5126 99.6655 83.3838L100.535 81.1794Z" fill="#393B4D"/>
<path d="M100.535 101.179C100.701 100.757 101.299 100.757 101.465 101.179L102.335 103.384C102.385 103.513 102.487 103.615 102.616 103.665L104.821 104.535C105.243 104.701 105.243 105.299 104.821 105.465L102.616 106.335C102.487 106.385 102.385 106.487 102.335 106.616L101.465 108.821C101.299 109.243 100.701 109.243 100.535 108.821L99.6655 106.616C99.6146 106.487 99.5126 106.385 99.3838 106.335L97.1794 105.465C96.7573 105.299 96.7573 104.701 97.1794 104.535L99.3838 103.665C99.5126 103.615 99.6146 103.513 99.6655 103.384L100.535 101.179Z" fill="#393B4D"/>
<path d="M100.535 121.179C100.701 120.757 101.299 120.757 101.465 121.179L102.335 123.384C102.385 123.513 102.487 123.615 102.616 123.665L104.821 124.535C105.243 124.701 105.243 125.299 104.821 125.465L102.616 126.335C102.487 126.385 102.385 126.487 102.335 126.616L101.465 128.821C101.299 129.243 100.701 129.243 100.535 128.821L99.6655 126.616C99.6146 126.487 99.5126 126.385 99.3838 126.335L97.1794 125.465C96.7573 125.299 96.7573 124.701 97.1794 124.535L99.3838 123.665C99.5126 123.615 99.6146 123.513 99.6655 123.384L100.535 121.179Z" fill="#393B4D"/>
<path d="M100.535 141.179C100.701 140.757 101.299 140.757 101.465 141.179L102.335 143.384C102.385 143.513 102.487 143.615 102.616 143.665L104.821 144.535C105.243 144.701 105.243 145.299 104.821 145.465L102.616 146.335C102.487 146.385 102.385 146.487 102.335 146.616L101.465 148.821C101.299 149.243 100.701 149.243 100.535 148.821L99.6655 146.616C99.6146 146.487 99.5126 146.385 99.3838 146.335L97.1794 145.465C96.7573 145.299 96.7573 144.701 97.1794 144.535L99.3838 143.665C99.5126 143.615 99.6146 143.513 99.6655 143.384L100.535 141.179Z" fill="#393B4D"/>
<path d="M124.535 1.17936C124.701 0.757285 125.299 0.757285 125.465 1.17936L126.335 3.38377C126.385 3.51263 126.487 3.61464 126.616 3.66546L128.821 4.53487C129.243 4.70133 129.243 5.29867 128.821 5.46513L126.616 6.33454C126.487 6.38536 126.385 6.48737 126.335 6.61623L125.465 8.82064C125.299 9.24271 124.701 9.24271 124.535 8.82064L123.665 6.61623C123.615 6.48737 123.513 6.38536 123.384 6.33454L121.179 5.46513C120.757 5.29867 120.757 4.70133 121.179 4.53487L123.384 3.66546C123.513 3.61464 123.615 3.51263 123.665 3.38377L124.535 1.17936Z" fill="#393B4D"/>
<path d="M124.535 21.1794C124.701 20.7573 125.299 20.7573 125.465 21.1794L126.335 23.3838C126.385 23.5126 126.487 23.6146 126.616 23.6655L128.821 24.5349C129.243 24.7013 129.243 25.2987 128.821 25.4651L126.616 26.3345C126.487 26.3854 126.385 26.4874 126.335 26.6162L125.465 28.8206C125.299 29.2427 124.701 29.2427 124.535 28.8206L123.665 26.6162C123.615 26.4874 123.513 26.3854 123.384 26.3345L121.179 25.4651C120.757 25.2987 120.757 24.7013 121.179 24.5349L123.384 23.6655C123.513 23.6146 123.615 23.5126 123.665 23.3838L124.535 21.1794Z" fill="#393B4D"/>
<path d="M124.535 41.1794C124.701 40.7573 125.299 40.7573 125.465 41.1794L126.335 43.3838C126.385 43.5126 126.487 43.6146 126.616 43.6655L128.821 44.5349C129.243 44.7013 129.243 45.2987 128.821 45.4651L126.616 46.3345C126.487 46.3854 126.385 46.4874 126.335 46.6162L125.465 48.8206C125.299 49.2427 124.701 49.2427 124.535 48.8206L123.665 46.6162C123.615 46.4874 123.513 46.3854 123.384 46.3345L121.179 45.4651C120.757 45.2987 120.757 44.7013 121.179 44.5349L123.384 43.6655C123.513 43.6146 123.615 43.5126 123.665 43.3838L124.535 41.1794Z" fill="#393B4D"/>
<path d="M124.535 61.1794C124.701 60.7573 125.299 60.7573 125.465 61.1794L126.335 63.3838C126.385 63.5126 126.487 63.6146 126.616 63.6655L128.821 64.5349C129.243 64.7013 129.243 65.2987 128.821 65.4651L126.616 66.3345C126.487 66.3854 126.385 66.4874 126.335 66.6162L125.465 68.8206C125.299 69.2427 124.701 69.2427 124.535 68.8206L123.665 66.6162C123.615 66.4874 123.513 66.3854 123.384 66.3345L121.179 65.4651C120.757 65.2987 120.757 64.7013 121.179 64.5349L123.384 63.6655C123.513 63.6146 123.615 63.5126 123.665 63.3838L124.535 61.1794Z" fill="#393B4D"/>
<path d="M124.535 81.1794C124.701 80.7573 125.299 80.7573 125.465 81.1794L126.335 83.3838C126.385 83.5126 126.487 83.6146 126.616 83.6655L128.821 84.5349C129.243 84.7013 129.243 85.2987 128.821 85.4651L126.616 86.3345C126.487 86.3854 126.385 86.4874 126.335 86.6162L125.465 88.8206C125.299 89.2427 124.701 89.2427 124.535 88.8206L123.665 86.6162C123.615 86.4874 123.513 86.3854 123.384 86.3345L121.179 85.4651C120.757 85.2987 120.757 84.7013 121.179 84.5349L123.384 83.6655C123.513 83.6146 123.615 83.5126 123.665 83.3838L124.535 81.1794Z" fill="#393B4D"/>
<path d="M124.535 101.179C124.701 100.757 125.299 100.757 125.465 101.179L126.335 103.384C126.385 103.513 126.487 103.615 126.616 103.665L128.821 104.535C129.243 104.701 129.243 105.299 128.821 105.465L126.616 106.335C126.487 106.385 126.385 106.487 126.335 106.616L125.465 108.821C125.299 109.243 124.701 109.243 124.535 108.821L123.665 106.616C123.615 106.487 123.513 106.385 123.384 106.335L121.179 105.465C120.757 105.299 120.757 104.701 121.179 104.535L123.384 103.665C123.513 103.615 123.615 103.513 123.665 103.384L124.535 101.179Z" fill="#393B4D"/>
<path d="M124.535 121.179C124.701 120.757 125.299 120.757 125.465 121.179L126.335 123.384C126.385 123.513 126.487 123.615 126.616 123.665L128.821 124.535C129.243 124.701 129.243 125.299 128.821 125.465L126.616 126.335C126.487 126.385 126.385 126.487 126.335 126.616L125.465 128.821C125.299 129.243 124.701 129.243 124.535 128.821L123.665 126.616C123.615 126.487 123.513 126.385 123.384 126.335L121.179 125.465C120.757 125.299 120.757 124.701 121.179 124.535L123.384 123.665C123.513 123.615 123.615 123.513 123.665 123.384L124.535 121.179Z" fill="#393B4D"/>
<path d="M124.535 141.179C124.701 140.757 125.299 140.757 125.465 141.179L126.335 143.384C126.385 143.513 126.487 143.615 126.616 143.665L128.821 144.535C129.243 144.701 129.243 145.299 128.821 145.465L126.616 146.335C126.487 146.385 126.385 146.487 126.335 146.616L125.465 148.821C125.299 149.243 124.701 149.243 124.535 148.821L123.665 146.616C123.615 146.487 123.513 146.385 123.384 146.335L121.179 145.465C120.757 145.299 120.757 144.701 121.179 144.535L123.384 143.665C123.513 143.615 123.615 143.513 123.665 143.384L124.535 141.179Z" fill="#393B4D"/>
</g>
</svg>
