<svg width="59" height="58" viewBox="0 0 59 58" fill="none" xmlns="http://www.w3.org/2000/svg">
<rect opacity="0.1" x="0.5" y="0.104614" width="57.7907" height="57.7907" rx="8.25581" fill="#5DA9DD"/>
<path d="M45.0791 19.5542C43.9254 20.0507 42.6861 20.3861 41.3832 20.5377C42.7275 19.7565 43.7333 18.527 44.2128 17.0786C42.9498 17.8072 41.5674 18.32 40.1259 18.5948C39.1565 17.5896 37.8724 16.9234 36.4732 16.6995C35.0739 16.4756 33.6377 16.7066 32.3875 17.3567C31.1373 18.0067 30.143 19.0394 29.5591 20.2945C28.9752 21.5495 28.8342 22.9566 29.1582 24.2974C26.5989 24.1726 24.0953 23.5266 21.8097 22.4014C19.5241 21.2761 17.5078 19.6967 15.8914 17.7656C15.3388 18.6914 15.021 19.7649 15.021 20.9081C15.0204 21.9372 15.2813 22.9506 15.7807 23.8583C16.2801 24.766 17.0025 25.54 17.8838 26.1115C16.8618 26.0799 15.8623 25.8117 14.9685 25.3293V25.4098C14.9684 26.8532 15.4825 28.2522 16.4236 29.3694C17.3648 30.4866 18.6749 31.2532 20.1318 31.5391C19.1837 31.7883 18.1896 31.825 17.2248 31.6464C17.6358 32.8884 18.4365 33.9744 19.5147 34.7525C20.5929 35.5306 21.8947 35.9618 23.2378 35.9858C20.9578 37.7239 18.142 38.6668 15.2434 38.6626C14.73 38.6628 14.217 38.6336 13.707 38.5754C16.6493 40.4125 20.0742 41.3876 23.5721 41.3838C35.413 41.3838 41.8861 31.8597 41.8861 23.5997C41.8861 23.3313 41.8792 23.0603 41.8668 22.7919C43.1259 21.9077 44.2127 20.8127 45.0764 19.5582L45.0791 19.5542Z" fill="#5DA9DD"/>
</svg>
