<svg width="22" height="26" viewBox="0 0 22 26" fill="none" xmlns="http://www.w3.org/2000/svg">
<path fill-rule="evenodd" clip-rule="evenodd" d="M10.9982 2.69286C13.3573 2.69286 15.2696 4.60525 15.2696 6.96429C15.2696 9.32334 13.3573 11.2357 10.9982 11.2357C8.63917 11.2357 6.72679 9.32334 6.72679 6.96429C6.72679 4.60525 8.63917 2.69286 10.9982 2.69286ZM17.2411 6.96429C17.2411 3.51646 14.446 0.721436 10.9982 0.721436C7.55038 0.721436 4.75536 3.51646 4.75536 6.96429C4.75536 10.4121 7.55038 13.2071 10.9982 13.2071C14.446 13.2071 17.2411 10.4121 17.2411 6.96429Z" fill="#A8DFD3"/>
<path fill-rule="evenodd" clip-rule="evenodd" d="M18.091 18.4071C13.5043 16.7691 8.4921 16.7691 3.90547 18.4071C3.23289 18.6473 2.78393 19.2844 2.78393 19.9986V21.7276C2.78393 22.6883 3.63488 23.4264 4.586 23.2905L5.84037 23.1113C9.26157 22.6226 12.7349 22.6226 16.1561 23.1113L17.4104 23.2905C18.3615 23.4264 19.2125 22.6883 19.2125 21.7276V19.9986C19.2125 19.2844 18.7635 18.6473 18.091 18.4071ZM3.2424 16.5506C8.25781 14.7593 13.7386 14.7593 18.754 16.5506C20.2112 17.071 21.1839 18.4513 21.1839 19.9986V21.7276C21.1839 23.888 19.2704 25.5476 17.1316 25.2421L15.8773 25.0629C12.641 24.6006 9.35544 24.6006 6.11918 25.0629L4.86481 25.2421C2.72603 25.5476 0.8125 23.888 0.8125 21.7276V19.9986C0.8125 18.4513 1.78521 17.071 3.2424 16.5506Z" fill="#50BEA7"/>
</svg>
